
<!-- <?xml version="1.0" encoding="UTF-8"?>
<!DOCTYPE svg PUBLIC "-//W3C//DTD SVG 1.1//EN" "http://www.w3.org/Graphics/SVG/1.1/DTD/svg11.dtd">
Creator: CorelDRAW 2021 (64-Bit) -->
<svg xmlns="http://www.w3.org/2000/svg" xml:space="preserve" width="91.44mm" height="91.44mm" version="1.1" style="shape-rendering:geometricPrecision; text-rendering:geometricPrecision; image-rendering:optimizeQuality; fill-rule:evenodd; clip-rule:evenodd"
viewBox="0 0 9144 9144"
 xmlns:xlink="http://www.w3.org/1999/xlink"
 xmlns:xodm="http://www.corel.com/coreldraw/odm/2003">
 <defs>
  <style type="text/css">
   <![CDATA[
    .str0 {stroke:black;stroke-width:16.93;stroke-linecap:round;stroke-linejoin:round;stroke-miterlimit:22.9256}
    .fil0 {fill:none}
   ]]>
  </style>
 </defs>
 <g id="Layer_x0020_1">
  <metadata id="CorelCorpID_0Corel-Layer"/>
  <polyline class="fil0 str0" points="-3494.66,5920.54 -2944.24,5370.12 -2731.38,5582.97 -2272.35,5123.94 -2138,5258.29 -1631.99,4752.14 -1475.18,4908.96 -869.99,4354.2 -301.82,4922.37 190.74,4429.81 929.65,5168.73 1914.9,4183.48 2407.52,4676.11 3101.66,3981.97 3818.19,4698.51 4669.08,3847.62 5116.91,4295.46 5620.74,3791.63 5620.74,3791.63 "/>
  <polyline class="fil0 str0" points="14735.01,5919.4 14184.59,5368.98 13971.73,5581.83 13512.7,5122.8 13378.35,5257.15 12872.34,4751 12715.53,4907.82 12110.34,4353.06 11542.17,4921.23 11049.61,4428.67 10310.7,5167.59 9325.45,4182.34 8832.83,4674.97 8138.69,3980.83 7422.16,4697.37 6571.27,3846.48 6123.44,4294.32 5619.61,3790.49 5619.61,3790.49 "/>
 </g>
</svg>