<!-- <?xml version="1.0" encoding="UTF-8"?>
<!DOCTYPE svg PUBLIC "-//W3C//DTD SVG 1.1//EN" "http://www.w3.org/Graphics/SVG/1.1/DTD/svg11.dtd">
Creator: CorelDRAW 2021 (64-Bit) -->
<svg xmlns="http://www.w3.org/2000/svg" xml:space="preserve" width="90%" height="100%" version="1.1" style="shape-rendering:geometricPrecision; text-rendering:geometricPrecision; image-rendering:optimizeQuality; fill-rule:evenodd; clip-rule:evenodd; margin-top:70%"
viewBox="0 0 9144 9144"
 xmlns:xlink="http://www.w3.org/1999/xlink"
 xmlns:xodm="http://www.corel.com/coreldraw/odm/2003">
 <defs>
  <style type="text/css">
   <![CDATA[
    .fil0 {fill:white;fill-rule:nonzero;width:100%;height:100%;transform:scale(0.3) translateX(140%);}
   ]]>
  </style>
 </defs>
 <g id="Layer_x0020_1">
  <metadata id="CorelCorpID_0Corel-Layer"/>
  <g>
   <path class="fil0" d="M-12931.77 9361.4l-40.18 -40.19 66.48 -311.54 66.25 14.14 -66.48 311.54 -40.18 -40.2 14.11 66.25zm0 0l-51.08 10.89 10.9 -51.08 40.18 40.19zm304.58 -99.51l7.05 33.13 -311.63 66.38 -14.11 -66.25 311.63 -66.39 7.06 33.13zm-250.52 53.17c-13.22,13.22 -34.68,13.22 -47.9,0 -13.22,-13.22 -13.22,-34.68 0,-47.9l47.9 47.9zm964.58 -964.58l-964.58 964.58 -47.9 -47.9 964.58 -964.58 47.9 0 0 47.9zm-47.9 -47.9c13.22,-13.22 34.68,-13.22 47.9,0 13.22,13.22 13.22,34.68 0,47.9l-47.9 -47.9zm582.29 630.2l-582.29 -582.3 47.9 -47.9 582.29 582.3 0 47.9 -47.9 0zm47.9 -47.9c13.22,13.22 13.22,34.68 0,47.9 -13.22,13.22 -34.68,13.22 -47.9,0l47.9 -47.9zm1209.37 -1161.47l-1209.37 1209.37 -47.9 -47.9 1209.37 -1209.37 47.9 0 0 47.9zm-47.9 -47.9c13.22,-13.22 34.68,-13.22 47.9,0 13.22,13.22 13.22,34.68 0,47.9l-47.9 -47.9zm515.1 563l-515.1 -515.1 47.9 -47.9 515.1 515.1 0 47.9 -47.9 0zm47.9 -47.9c13.22,13.22 13.22,34.68 0,47.9 -13.22,13.22 -34.68,13.22 -47.9,0l47.9 -47.9zm1366.14 -1318.24l-1366.14 1366.14 -47.9 -47.9 1366.14 -1366.14 47.9 0 0 47.9zm-47.9 -47.9c13.22,-13.22 34.68,-13.22 47.9,0 13.22,13.22 13.22,34.68 0,47.9l-47.9 -47.9zm649.47 697.38l-649.47 -649.48 47.9 -47.9 649.47 649.48 0 47.9 -47.9 0zm47.9 -47.9c13.22,13.22 13.22,34.68 0,47.9 -13.22,13.22 -34.68,13.22 -47.9,0l47.9 -47.9zm1478.12 -1430.22l-1478.12 1478.12 -47.9 -47.9 1478.12 -1478.12 47.9 0 0 47.9zm-47.9 -47.9c13.22,-13.22 34.68,-13.22 47.9,0 13.22,13.22 13.22,34.68 0,47.9l-47.9 -47.9zm761.45 809.36l-761.45 -761.46 47.9 -47.9 761.45 761.46 0 47.9 -47.9 0zm47.9 -47.9c13.22,13.22 13.22,34.68 0,47.9 -13.22,13.22 -34.68,13.22 -47.9,0l47.9 -47.9zm963.03 -915.12l-963.03 963.02 -47.9 -47.9 963.03 -963.02 47.9 0 0 47.9zm-47.9 -47.9c13.22,-13.22 34.68,-13.22 47.9,0 13.22,13.22 13.22,34.68 0,47.9l-47.9 -47.9zm447.91 495.81l-447.91 -447.91 47.9 -47.9 447.91 447.91 0 47.9 -47.9 0zm47.9 -47.9c13.22,13.22 13.22,34.68 0,47.9 -13.22,13.22 -34.68,13.22 -47.9,0l47.9 -47.9zm1007.8 -959.9l-1007.8 1007.8 -47.9 -47.9 1007.8 -1007.8 47.9 0 0 47.9zm-47.9 -47.9c13.22,-13.22 34.68,-13.22 47.9,0 13.22,13.22 13.22,34.68 0,47.9l-47.9 -47.9zm694.26 742.16l-694.26 -694.26 47.9 -47.9 694.26 694.26 0 47.9 -47.9 0zm47.9 -47.9c13.22,13.22 13.22,34.68 0,47.9 -13.22,13.22 -34.68,13.22 -47.9,0l47.9 -47.9zm1276.56 -1228.65l-1276.56 1276.55 -47.9 -47.9 1276.56 -1276.55 47.9 0 0 47.9zm-47.9 -47.9c13.22,-13.22 34.68,-13.22 47.9,0 13.22,13.22 13.22,34.68 0,47.9l-47.9 -47.9zm694.26 742.17l-694.26 -694.27 47.9 -47.9 694.26 694.27 0 47.9 -47.9 0zm47.9 -47.9c13.22,13.22 13.22,34.68 0,47.9 -13.22,13.22 -34.68,13.22 -47.9,0l47.9 -47.9zm1321.35 -1273.45l-1321.35 1321.35 -47.9 -47.9 1321.35 -1321.35 47.9 0 0 47.9zm-47.9 -47.9c13.22,-13.22 34.68,-13.22 47.9,0 13.22,13.22 13.22,34.68 0,47.9l-47.9 -47.9zm537.48 585.4l-537.48 -537.5 47.9 -47.9 537.48 537.5 0 47.9 -47.9 0zm47.9 -47.9c13.22,13.22 13.22,34.68 0,47.9 -13.22,13.22 -34.68,13.22 -47.9,0l47.9 -47.9zm1164.59 -1116.69l-1164.59 1164.59 -47.9 -47.9 1164.59 -1164.59 47.9 0 0 47.9zm-47.9 -47.9c13.22,-13.22 34.68,-13.22 47.9,0 13.22,13.22 13.22,34.68 0,47.9l-47.9 -47.9zm582.28 630.2l-582.28 -582.3 47.9 -47.9 582.28 582.3 0 47.9 -47.9 0zm47.9 -47.9c13.22,13.22 13.22,34.68 0,47.9 -13.22,13.22 -34.68,13.22 -47.9,0l47.9 -47.9zm1164.58 -1116.68l-1164.58 1164.58 -47.9 -47.9 1164.58 -1164.58 47.9 47.9zm-47.9 -47.9c13.22,-13.22 34.68,-13.22 47.9,0 13.22,13.22 13.22,34.68 0,47.9l-47.9 -47.9zm17474.86 6505.58l-40.19 40.18 -311.54 -66.48 14.14 -66.25 311.54 66.48 -40.2 40.18 66.25 -14.11zm0 0l10.89 51.08 -51.08 -10.9 40.19 -40.18zm-99.51 -304.58l33.13 -7.05 66.38 311.63 -66.25 14.11 -66.39 -311.63 33.13 -7.06zm53.17 250.52c13.22,13.22 13.22,34.68 0,47.9 -13.22,13.22 -34.68,13.22 -47.9,0l47.9 -47.9zm-964.58 -964.58l964.58 964.58 -47.9 47.9 -964.58 -964.58 0 -47.9 47.9 0zm-47.9 47.9c-13.22,-13.22 -13.22,-34.68 0,-47.9 13.22,-13.22 34.68,-13.22 47.9,0l-47.9 47.9zm-582.29 534.4l582.29 -582.3 47.9 47.9 -582.29 582.3 -47.9 0 0 -47.9zm47.9 47.9c-13.22,13.22 -34.68,13.22 -47.9,0 -13.22,-13.22 -13.22,-34.68 0,-47.9l47.9 47.9zm-1209.37 -1257.27l1209.37 1209.37 -47.9 47.9 -1209.37 -1209.37 0 -47.9 47.9 0zm-47.9 47.9c-13.22,-13.22 -13.22,-34.68 0,-47.9 13.22,-13.22 34.68,-13.22 47.9,0l-47.9 47.9zm-515.1 467.2l515.1 -515.1 47.9 47.9 -515.1 515.1 -47.9 0 0 -47.9zm47.9 47.9c-13.22,13.22 -34.68,13.22 -47.9,0 -13.22,-13.22 -13.22,-34.68 0,-47.9l47.9 47.9zm-1366.14 -1414.04l1366.14 1366.14 -47.9 47.9 -1366.14 -1366.14 0 -47.9 47.9 0zm-47.9 47.9c-13.22,-13.22 -13.22,-34.68 0,-47.9 13.22,-13.22 34.68,-13.22 47.9,0l-47.9 47.9zm-649.47 601.58l649.47 -649.48 47.9 47.9 -649.47 649.48 -47.9 0 0 -47.9zm47.9 47.9c-13.22,13.22 -34.68,13.22 -47.9,0 -13.22,-13.22 -13.22,-34.68 0,-47.9l47.9 47.9zm-1478.12 -1526.02l1478.12 1478.12 -47.9 47.9 -1478.12 -1478.12 0 -47.9 47.9 0zm-47.9 47.9c-13.22,-13.22 -13.22,-34.68 0,-47.9 13.22,-13.22 34.68,-13.22 47.9,0l-47.9 47.9zm-761.45 713.56l761.45 -761.46 47.9 47.9 -761.45 761.46 -47.9 0 0 -47.9zm47.9 47.9c-13.22,13.22 -34.68,13.22 -47.9,0 -13.22,-13.22 -13.22,-34.68 0,-47.9l47.9 47.9zm-963.03 -1010.92l963.03 963.02 -47.9 47.9 -963.03 -963.02 0 -47.9 47.9 0zm-47.9 47.9c-13.22,-13.22 -13.22,-34.68 0,-47.9 13.22,-13.22 34.68,-13.22 47.9,0l-47.9 47.9zm-447.91 400.01l447.91 -447.91 47.9 47.9 -447.91 447.91 -47.9 0 0 -47.9zm47.9 47.9c-13.22,13.22 -34.68,13.22 -47.9,0 -13.22,-13.22 -13.22,-34.68 0,-47.9l47.9 47.9zm-1007.8 -1055.7l1007.8 1007.8 -47.9 47.9 -1007.8 -1007.8 0 -47.9 47.9 0zm-47.9 47.9c-13.22,-13.22 -13.22,-34.68 0,-47.9 13.22,-13.22 34.68,-13.22 47.9,0l-47.9 47.9zm-694.26 646.36l694.26 -694.26 47.9 47.9 -694.26 694.26 -47.9 0 0 -47.9zm47.9 47.9c-13.22,13.22 -34.68,13.22 -47.9,0 -13.22,-13.22 -13.22,-34.68 0,-47.9l47.9 47.9zm-1276.56 -1324.45l1276.56 1276.55 -47.9 47.9 -1276.56 -1276.55 0 -47.9 47.9 0zm-47.9 47.9c-13.22,-13.22 -13.22,-34.68 0,-47.9 13.22,-13.22 34.68,-13.22 47.9,0l-47.9 47.9zm-694.26 646.37l694.26 -694.27 47.9 47.9 -694.26 694.27 -47.9 0 0 -47.9zm47.9 47.9c-13.22,13.22 -34.68,13.22 -47.9,0 -13.22,-13.22 -13.22,-34.68 0,-47.9l47.9 47.9zm-1321.35 -1369.25l1321.35 1321.35 -47.9 47.9 -1321.35 -1321.35 0 -47.9 47.9 0zm-47.9 47.9c-13.22,-13.22 -13.22,-34.68 0,-47.9 13.22,-13.22 34.68,-13.22 47.9,0l-47.9 47.9zm-537.48 489.6l537.48 -537.5 47.9 47.9 -537.48 537.5 -47.9 0 0 -47.9zm47.9 47.9c-13.22,13.22 -34.68,13.22 -47.9,0 -13.22,-13.22 -13.22,-34.68 0,-47.9l47.9 47.9zm-1164.59 -1212.49l1164.59 1164.59 -47.9 47.9 -1164.59 -1164.59 0 -47.9 47.9 0zm-47.9 47.9c-13.22,-13.22 -13.22,-34.68 0,-47.9 13.22,-13.22 34.68,-13.22 47.9,0l-47.9 47.9zm-582.28 534.4l582.28 -582.3 47.9 47.9 -582.28 582.3 -47.9 0 0 -47.9zm47.9 47.9c-13.22,13.22 -34.68,13.22 -47.9,0 -13.22,-13.22 -13.22,-34.68 0,-47.9l47.9 47.9zm-1164.58 -1212.48l1164.58 1164.58 -47.9 47.9 -1164.58 -1164.58 47.9 -47.9zm-47.9 47.9c-13.22,-13.22 -13.22,-34.68 0,-47.9 13.22,-13.22 34.68,-13.22 47.9,0l-47.9 47.9z"/>
  </g>
 </g>
</svg>
